<svg preserveAspectRatio="none" width="100%" height="100%" overflow="visible" style="display: block;" viewBox="0 0 193 26.1314" fill="none" xmlns="http://www.w3.org/2000/svg">
<g id="Group 310">
<path id="Vector" d="M92.1548 20.3242L101.833 5.8073H107.182L97.5034 20.3242H92.1548ZM111.051 0.000118613L107.434 5.42619V0.000118613H91.7436L84.2052 11.3087V0.000118613H72.5908V26.1314H88.2812L91.8986 20.7053V26.1314H107.589L115.127 14.8249V26.1314H126.742V0.000118613H111.051Z" fill="var(--fill-0, white)"/>
<path id="Vector_2" d="M23.2287 11.3087L15.6904 0.000118613H0V26.1314H11.6144V14.8249L19.1527 26.1314H34.8431V0.000118613H23.2287V11.3087Z" fill="var(--fill-0, white)"/>
<path id="Vector_3" d="M53.7181 20.3242C49.7153 20.3242 46.4596 17.0685 46.4596 13.0657C46.4596 9.06294 49.7153 5.8073 53.7181 5.8073C57.7209 5.8073 60.9765 9.06294 60.9765 13.0657C60.9765 17.0685 57.7209 20.3242 53.7181 20.3242ZM40.1185 0.000118613C36.8564 3.39356 34.8453 7.99926 34.8453 13.0657C34.8453 18.1322 36.8564 22.7379 40.1185 26.1314H67.3177C70.5798 22.7379 72.5909 18.1322 72.5909 13.0657C72.5909 7.99926 70.5798 3.39356 67.3177 0.000118613H40.1185Z" fill="var(--fill-0, white)"/>
<path id="Vector_4" d="M173.957 7.5234C169.313 7.5234 165.06 9.18783 161.753 11.9461C158.445 9.18783 154.193 7.5234 149.548 7.5234H140.632V5.01492H161.113V0.000118613H129V18.9655H149.546V18.9504C151.962 18.9504 154.111 20.0744 155.511 21.825C156.467 23.02 157.065 24.5079 157.162 26.1314H166.339C166.436 24.5079 167.035 23.02 167.991 21.825C169.39 20.0744 171.541 18.9504 173.955 18.9504C178.02 18.9504 181.334 22.1264 181.571 26.1314H193C192.755 15.8154 184.331 7.5234 173.955 7.5234" fill="var(--fill-0, white)"/>
</g>
</svg>
